<svg xmlns="http://www.w3.org/2000/svg" viewBox="0 0 84.23 80.55"><defs><style>.cls-1{fill:#fff;}</style></defs><g id="Layer_2" data-name="Layer 2"><g id="Boards_List" data-name="Boards List"><path class="cls-1" d="M24.57,0H14C6.28,0,0,6,0,13.42V23.49c0,7.42,6.28,13.43,14,13.43H24.57c7.75,0,14-6,14-13.43V13.42C38.6,6,32.32,0,24.57,0Zm7,23.49a6.88,6.88,0,0,1-7,6.72H14a6.87,6.87,0,0,1-7-6.72V13.42a6.87,6.87,0,0,1,7-6.71H24.57a6.88,6.88,0,0,1,7,6.71Z"/><path class="cls-1" d="M24.57,43.63H14c-7.76,0-14,6-14,13.43V67.12c0,7.42,6.28,13.43,14,13.43H24.57c7.75,0,14-6,14-13.43V57.06C38.6,49.64,32.32,43.63,24.57,43.63Zm7,23.49a6.88,6.88,0,0,1-7,6.72H14a6.87,6.87,0,0,1-7-6.72V57.06a6.87,6.87,0,0,1,7-6.72H24.57a6.88,6.88,0,0,1,7,6.72Z"/><path class="cls-1" d="M70.19,43.63H59.66c-7.75,0-14,6-14,13.43V67.12c0,7.42,6.29,13.43,14,13.43H70.19c7.75,0,14-6,14-13.43V57.06C84.23,49.64,77.94,43.63,70.19,43.63Zm7,23.49a6.87,6.87,0,0,1-7,6.72H59.66a6.87,6.87,0,0,1-7-6.72V57.06a6.87,6.87,0,0,1,7-6.72H70.19a6.87,6.87,0,0,1,7,6.72Z"/><path class="cls-1" d="M49.13,23.49H59.66V33.56a3.51,3.51,0,0,0,7,0V23.49H77.21a3.36,3.36,0,1,0,0-6.71H66.68V6.71a3.51,3.51,0,0,0-7,0V16.78H49.13a3.36,3.36,0,1,0,0,6.71Z"/></g></g></svg>