<svg xmlns="http://www.w3.org/2000/svg" viewBox="0 0 73.74 73.74"><defs><style>.cls-1{fill:#fff;}</style></defs><g id="Layer_2" data-name="Layer 2"><g id="Output"><path class="cls-1" d="M29.86,46.79l-10.3-10.3a2.63,2.63,0,0,0-3.72,0h0a2.61,2.61,0,0,0,0,3.71l10.3,10.31a5.27,5.27,0,0,0,7.44,0h0L57.9,26.18a2.63,2.63,0,0,0,0-3.72h0a2.63,2.63,0,0,0-3.71,0Z"/><path class="cls-1" d="M36.87,73.74A36.87,36.87,0,1,0,0,36.87,36.87,36.87,0,0,0,36.87,73.74Zm0-67.59A30.73,30.73,0,1,1,6.15,36.87,30.72,30.72,0,0,1,36.87,6.15Z"/></g></g></svg>