<svg xmlns="http://www.w3.org/2000/svg" viewBox="0 0 43.98 44.05"><defs><style>.cls-1{fill:#fff;}</style></defs><g id="Layer_2" data-name="Layer 2"><g id="Output"><path class="cls-1" d="M38.27,28.14,31.35,39.43A9.61,9.61,0,0,1,24.25,44a8.88,8.88,0,0,1-1.15.07,9.59,9.59,0,0,1-5.51-1.75A8.71,8.71,0,0,1,5.31,30.24L2.9,27.83a9.64,9.64,0,0,1,1.75-15L15.24,6.24a16.25,16.25,0,0,1,18.95,1l3.05-3a1.84,1.84,0,1,1,2.64,2.55l-.05,0-3,3.05a16.42,16.42,0,0,1,1.48,18.29ZM14.79,39.73,8,32.9a5,5,0,0,0,.85,6A5.17,5.17,0,0,0,14.79,39.73ZM33,11.1A12.63,12.63,0,0,0,17.19,9.36L6.58,15.91a6,6,0,0,0-1.94,8.24,5.66,5.66,0,0,0,.86,1.09L18.88,38.62a6,6,0,0,0,8.47,0,6.17,6.17,0,0,0,.87-1.11l6.9-11.24A12.74,12.74,0,0,0,33,11.09Zm2.35,32.95a1.84,1.84,0,0,1-1.09-3.32,15.85,15.85,0,0,0,6.09-9.92,1.83,1.83,0,1,1,3.59.73v.06a19.64,19.64,0,0,1-7.5,12.1A1.88,1.88,0,0,1,35.35,44.05ZM1.83,10.53A1.83,1.83,0,0,1,.36,7.61,19.6,19.6,0,0,1,12.68,0a1.83,1.83,0,0,1,.73,3.59A15.86,15.86,0,0,0,3.3,9.79a1.82,1.82,0,0,1-1.47.74Z"/></g></g></svg>