<svg xmlns="http://www.w3.org/2000/svg" viewBox="0 0 73.74 73.74"><defs><style>.cls-1{fill:#fff;}</style></defs><g id="Layer_2" data-name="Layer 2"><g id="Output"><path class="cls-1" d="M24.58,49.16a3.08,3.08,0,0,0,4.35,0l7.94-7.94,8,7.94a3.07,3.07,0,0,0,4.34-4.34l-7.94-8,7.94-7.94a3.07,3.07,0,0,0-4.34-4.35l-8,8-7.94-8a3.08,3.08,0,0,0-4.35,4.35l8,7.94-8,8A3.07,3.07,0,0,0,24.58,49.16Z"/><path class="cls-1" d="M36.87,73.74A36.87,36.87,0,1,0,0,36.87,36.87,36.87,0,0,0,36.87,73.74Zm0-67.59A30.73,30.73,0,1,1,6.15,36.87,30.72,30.72,0,0,1,36.87,6.15Z"/></g></g></svg>