<svg xmlns="http://www.w3.org/2000/svg" viewBox="0 0 43.94 43.98"><defs><style>.cls-1{fill:#fff;}</style></defs><g id="Layer_2" data-name="Layer 2"><g id="Output"><path class="cls-1" d="M43.94,20.64A22,22,0,1,0,22,44H34.79a9.15,9.15,0,0,0,9.15-9.15ZM40.28,34.83a5.49,5.49,0,0,1-5.49,5.49H22A18.37,18.37,0,0,1,8.32,34.2,18.14,18.14,0,0,1,3.78,19.9a18.39,18.39,0,0,1,15.85-16A18.89,18.89,0,0,1,22,3.71,18.13,18.13,0,0,1,33.69,7.92a18.35,18.35,0,0,1,6.59,12.89Z"/><path class="cls-1" d="M14.65,16.52H22a1.83,1.83,0,1,0,0-3.66H14.65a1.83,1.83,0,0,0,0,3.66Z"/><path class="cls-1" d="M29.3,20.18H14.65a1.83,1.83,0,0,0,0,3.66H29.3a1.83,1.83,0,0,0,0-3.66Z"/><path class="cls-1" d="M29.3,27.51H14.65a1.83,1.83,0,1,0,0,3.66H29.3a1.83,1.83,0,0,0,0-3.66Z"/></g></g></svg>