<svg xmlns="http://www.w3.org/2000/svg" viewBox="0 0 54.36 54.36"><defs><style>.cls-1{fill:#fff;}</style></defs><g id="Layer_2" data-name="Layer 2"><g id="Output"><path class="cls-1" d="M42.26,2.11,14.64,29.72a11.24,11.24,0,0,0-3.31,8v3A2.27,2.27,0,0,0,13.59,43h3a11.29,11.29,0,0,0,8-3.32L52.25,12.1a7.06,7.06,0,0,0,0-10A7.21,7.21,0,0,0,42.26,2.11ZM49.05,8.9,21.44,36.52a6.88,6.88,0,0,1-4.81,2h-.77v-.78a6.83,6.83,0,0,1,2-4.81L45.46,5.31a2.6,2.6,0,0,1,3.59,0A2.54,2.54,0,0,1,49.05,8.9Z"/><path class="cls-1" d="M52.1,20.34a2.27,2.27,0,0,0-2.27,2.26V34H40.77A6.79,6.79,0,0,0,34,40.77v9.06H11.33A6.79,6.79,0,0,1,4.53,43V11.33a6.79,6.79,0,0,1,6.8-6.8H31.81a2.27,2.27,0,0,0,0-4.53H11.33A11.34,11.34,0,0,0,0,11.33V43A11.34,11.34,0,0,0,11.33,54.36H37a11.26,11.26,0,0,0,8-3.31l6-6a11.22,11.22,0,0,0,3.32-8V22.6A2.26,2.26,0,0,0,52.1,20.34ZM41.82,47.84a6.68,6.68,0,0,1-3.31,1.81V40.77a2.26,2.26,0,0,1,2.26-2.26h8.89a6.84,6.84,0,0,1-1.81,3.31Z"/></g></g></svg>