<svg xmlns="http://www.w3.org/2000/svg" viewBox="0 0 68.2 65.18"><defs><style>.cls-1{fill:#fff;}</style></defs><g id="Layer_2" data-name="Layer 2"><g id="Boards_List" data-name="Boards List"><path class="cls-1" d="M65.7,24.59,44.15,4a14.71,14.71,0,0,0-20.1,0L2.5,24.59A7.88,7.88,0,0,0,0,30.35V57a8.35,8.35,0,0,0,8.52,8.15H59.67A8.35,8.35,0,0,0,68.2,57V30.35A7.88,7.88,0,0,0,65.7,24.59ZM42.62,59.75h-17V49.06A8.35,8.35,0,0,1,34.1,40.9a8.34,8.34,0,0,1,8.52,8.16ZM62.52,57a2.79,2.79,0,0,1-2.85,2.72H48.31V49.06c0-7.51-6.36-13.59-14.21-13.59S19.89,41.55,19.89,49.06V59.75H8.52A2.79,2.79,0,0,1,5.68,57V30.35a2.68,2.68,0,0,1,.84-1.92L28.07,7.82a8.84,8.84,0,0,1,12.06,0L61.68,28.44a2.69,2.69,0,0,1,.84,1.91Z"/></g></g></svg>