<svg xmlns="http://www.w3.org/2000/svg" viewBox="0 0 45.27 67.91"><defs><style>.cls-1{fill:#fff;}</style></defs><g id="Layer_2" data-name="Layer 2"><g id="Output"><path class="cls-1" d="M31.12,0h-17A14.17,14.17,0,0,0,0,14.15V53.76A14.17,14.17,0,0,0,14.15,67.91h17A14.17,14.17,0,0,0,45.27,53.76V14.15A14.17,14.17,0,0,0,31.12,0Zm-17,5.66h17a8.49,8.49,0,0,1,8.49,8.49V45.27H5.66V14.15A8.49,8.49,0,0,1,14.15,5.66Zm17,56.59h-17a8.49,8.49,0,0,1-8.49-8.49V50.93h34v2.83A8.49,8.49,0,0,1,31.12,62.25Z"/></g></g></svg>