<svg xmlns="http://www.w3.org/2000/svg" viewBox="0 0 61.93 61.93"><defs><style>.cls-1{fill:#fff;}</style></defs><g id="Layer_2" data-name="Layer 2"><g id="Output"><path class="cls-1" d="M59.35,28.38H54.19V23.22a2.59,2.59,0,0,0-5.17,0v5.16H43.86a2.58,2.58,0,0,0,0,5.16H49V38.7a2.59,2.59,0,0,0,5.17,0V33.54h5.16a2.58,2.58,0,0,0,0-5.16Z"/><path class="cls-1" d="M23.22,31A15.48,15.48,0,1,0,7.74,15.48,15.48,15.48,0,0,0,23.22,31Zm0-25.8A10.32,10.32,0,1,1,12.9,15.48,10.32,10.32,0,0,1,23.22,5.16Z"/><path class="cls-1" d="M23.22,36.12A23.25,23.25,0,0,0,0,59.35a2.58,2.58,0,0,0,5.16,0,18.06,18.06,0,1,1,36.12,0,2.58,2.58,0,1,0,5.16,0A23.25,23.25,0,0,0,23.22,36.12Z"/></g></g></svg>