<svg xmlns="http://www.w3.org/2000/svg" viewBox="0 0 115.05 115.05"><defs><style>.cls-1{fill:#fff;}</style></defs><g id="Layer_2" data-name="Layer 2"><g id="Output"><path class="cls-1" d="M57.52,47.94A19.18,19.18,0,1,0,76.7,67.11,19.17,19.17,0,0,0,57.52,47.94Zm0,28.76a9.59,9.59,0,1,1,9.59-9.59A9.58,9.58,0,0,1,57.52,76.7Z"/><path class="cls-1" d="M108,19.76,95.29,7a23.81,23.81,0,0,0-17-7H24A24,24,0,0,0,0,24V91.08a24,24,0,0,0,24,24H91.08a24,24,0,0,0,24-24V36.7A23.79,23.79,0,0,0,108,19.76ZM81.49,10v4.41A14.38,14.38,0,0,1,67.11,28.76H47.94A14.38,14.38,0,0,1,33.56,14.38V9.59H78.34A14.51,14.51,0,0,1,81.49,10Zm24,81.11a14.38,14.38,0,0,1-14.38,14.38H24A14.38,14.38,0,0,1,9.59,91.08V24A14.38,14.38,0,0,1,24,9.59v4.79a24,24,0,0,0,24,24H67.11A23.93,23.93,0,0,0,90.9,16.18l10.35,10.36a14.44,14.44,0,0,1,4.21,10.16Z"/></g></g></svg>