<svg xmlns="http://www.w3.org/2000/svg" viewBox="0 0 115.05 115.05"><defs><style>.cls-1{fill:#fff;}</style></defs><g id="Layer_2" data-name="Layer 2"><g id="Output"><path class="cls-1" d="M57.52,0a57.53,57.53,0,1,0,57.53,57.52A57.52,57.52,0,0,0,57.52,0Zm0,105.46a47.94,47.94,0,1,1,47.94-47.94A47.93,47.93,0,0,1,57.52,105.46Zm24-47.94a4.79,4.79,0,0,1-4.79,4.8H62.32V76.7a4.8,4.8,0,0,1-9.59,0V62.32H38.35a4.8,4.8,0,0,1,0-9.59H52.73V38.35a4.8,4.8,0,0,1,9.59,0V52.73H76.7A4.79,4.79,0,0,1,81.49,57.52Z"/></g></g></svg>