<svg xmlns="http://www.w3.org/2000/svg" viewBox="0 0 95.16 87.16"><defs><style>.cls-1{fill:#fff;}</style></defs><g id="Layer_2" data-name="Layer 2"><g id="Output"><path class="cls-1" d="M46.34,87.16a11.78,11.78,0,0,1-8.4-3.48L24.52,70.13a4,4,0,0,1,5.09-6.08,4.34,4.34,0,0,1,.52.53l13.4,13.53a4.07,4.07,0,0,0,5.59,0L70.57,56.66a4,4,0,1,1,5.61,5.6L54.73,83.71a11.84,11.84,0,0,1-8.39,3.45Zm-18.59-4a4,4,0,0,0-4-4H22.53A15.1,15.1,0,0,1,8.09,67.42a13.74,13.74,0,0,1,7.27-14.26A7.9,7.9,0,0,0,18.5,42.52,23.77,23.77,0,1,1,62.31,24.64a12.29,12.29,0,0,0,8.1,8.14A23.64,23.64,0,0,1,87.1,57.38a23.15,23.15,0,0,1-17,20.11A4,4,0,0,0,72.57,85a31.13,31.13,0,0,0,.17-59.82,4.34,4.34,0,0,1-2.86-2.92A31.7,31.7,0,0,0,8.51,25.62a30.32,30.32,0,0,0,3.17,20.52A21.58,21.58,0,0,0,.24,68.54,23.15,23.15,0,0,0,22.53,87.16h1.26A4,4,0,0,0,27.75,83.2Z"/></g></g></svg>