<svg xmlns="http://www.w3.org/2000/svg" viewBox="0 0 62.25 61.93"><defs><style>.cls-1{fill:#fff;}</style></defs><g id="Layer_2" data-name="Layer 2"><g id="Output"><path class="cls-1" d="M23.34,31A15.48,15.48,0,1,0,7.78,15.48,15.52,15.52,0,0,0,23.34,31Zm0-25.8A10.32,10.32,0,1,1,13,15.48,10.35,10.35,0,0,1,23.34,5.16Z"/><path class="cls-1" d="M23.34,36.12A23.32,23.32,0,0,0,0,59.35a2.6,2.6,0,0,0,5.19,0,18.16,18.16,0,0,1,36.31,0,2.59,2.59,0,0,0,5.18,0A23.31,23.31,0,0,0,23.34,36.12Z"/><path class="cls-1" d="M57.06,20.32A5.45,5.45,0,0,0,51.87,26a5.45,5.45,0,0,0-5.19-5.68A5.45,5.45,0,0,0,41.5,26c0,4.46,5.85,9.69,8.76,12a2.59,2.59,0,0,0,3.22,0c2.91-2.32,8.76-7.56,8.76-12A5.45,5.45,0,0,0,57.06,20.32Z"/></g></g></svg>