<svg xmlns="http://www.w3.org/2000/svg" viewBox="0 0 44.05 44.05"><defs><style>.cls-1{fill:#fff;}</style></defs><g id="Layer_2" data-name="Layer 2"><g id="Output"><path class="cls-1" d="M34.87,0H9.18A9.19,9.19,0,0,0,0,9.18V34.87a9.19,9.19,0,0,0,9.18,9.18H34.87a9.19,9.19,0,0,0,9.18-9.18V9.18A9.19,9.19,0,0,0,34.87,0Zm-22,40.38V38.54a9.18,9.18,0,0,1,18.35,0v1.84Zm27.53-5.51a5.51,5.51,0,0,1-5.51,5.51V38.54a12.85,12.85,0,1,0-25.69,0v1.84a5.51,5.51,0,0,1-5.51-5.51V9.18A5.51,5.51,0,0,1,9.18,3.67H34.87a5.51,5.51,0,0,1,5.51,5.51Z"/><path class="cls-1" d="M22,7.34a7.34,7.34,0,1,0,7.35,7.34A7.34,7.34,0,0,0,22,7.34Zm0,11a3.67,3.67,0,1,1,3.67-3.67A3.67,3.67,0,0,1,22,18.35Z"/></g></g></svg>