<svg xmlns="http://www.w3.org/2000/svg" viewBox="0 0 61.93 61.93"><defs><style>.cls-1{fill:#fff;}</style></defs><g id="Layer_2" data-name="Layer 2"><g id="Output"><path class="cls-1" d="M59.35,41.28a2.58,2.58,0,0,0-2.58,2.58V49A7.75,7.75,0,0,1,49,56.77H43.86a2.58,2.58,0,0,0,0,5.16H49A12.92,12.92,0,0,0,61.93,49V43.86A2.59,2.59,0,0,0,59.35,41.28Z"/><path class="cls-1" d="M2.58,20.64a2.57,2.57,0,0,0,2.58-2.58V12.9A7.75,7.75,0,0,1,12.9,5.16h5.16a2.58,2.58,0,1,0,0-5.16H12.9A12.92,12.92,0,0,0,0,12.9v5.16A2.58,2.58,0,0,0,2.58,20.64Z"/><path class="cls-1" d="M18.06,56.77H12.9A7.75,7.75,0,0,1,5.16,49V43.86a2.58,2.58,0,0,0-5.16,0V49A12.92,12.92,0,0,0,12.9,61.93h5.16a2.58,2.58,0,1,0,0-5.16Z"/><path class="cls-1" d="M49,0H43.86a2.58,2.58,0,1,0,0,5.16H49a7.75,7.75,0,0,1,7.75,7.74v5.16a2.58,2.58,0,1,0,5.16,0V12.9A12.92,12.92,0,0,0,49,0Z"/><path class="cls-1" d="M31,28.38A10.32,10.32,0,1,0,20.64,18.06,10.32,10.32,0,0,0,31,28.38ZM31,12.9a5.16,5.16,0,1,1-5.16,5.16A5.16,5.16,0,0,1,31,12.9Z"/><path class="cls-1" d="M46.44,51.6A2.57,2.57,0,0,0,49,49,15.49,15.49,0,0,0,33.54,33.54H28.38A15.5,15.5,0,0,0,12.9,49a2.58,2.58,0,1,0,5.16,0A10.32,10.32,0,0,1,28.38,38.7h5.16A10.32,10.32,0,0,1,43.86,49,2.58,2.58,0,0,0,46.44,51.6Z"/></g></g></svg>