<svg xmlns="http://www.w3.org/2000/svg" viewBox="0 0 55.31 55.31"><defs><style>.cls-1{fill:#fff;}</style></defs><g id="Layer_2" data-name="Layer 2"><g id="Output"><path class="cls-1" d="M27.65,0A27.66,27.66,0,1,0,55.31,27.65,27.65,27.65,0,0,0,27.65,0ZM45.81,41.79a18.32,18.32,0,0,1-4.7-6l3.53-1.42a2.3,2.3,0,0,0-1.71-4.28L39.6,31.45a17.1,17.1,0,0,1,0-7.6l3.33,1.33a2.3,2.3,0,0,0,1.71-4.28l-3.53-1.41a18.25,18.25,0,0,1,4.7-6,22.89,22.89,0,0,1,0,28.28ZM9.5,13.51a18.49,18.49,0,0,1,4.7,6L10.67,20.9a2.3,2.3,0,1,0,1.71,4.28l3.33-1.33a18.66,18.66,0,0,1,.42,3.8,18.66,18.66,0,0,1-.42,3.8l-3.33-1.33a2.3,2.3,0,1,0-1.71,4.28h0l3.53,1.42a18.45,18.45,0,0,1-4.7,6A22.89,22.89,0,0,1,9.5,13.51Zm3.19,31.63a23.1,23.1,0,0,0,5.79-7.61L22.19,39a2.3,2.3,0,0,0,1.71-4.28h0L20.06,33.2a23.1,23.1,0,0,0,.68-5.55,22.94,22.94,0,0,0-.68-5.53l3.84-1.53a2.3,2.3,0,0,0-1.71-4.28l-3.71,1.48a23,23,0,0,0-5.79-7.63,23,23,0,0,1,29.93,0,22.87,22.87,0,0,0-5.79,7.62l-3.71-1.49a2.31,2.31,0,0,0-1.71,4.29l3.85,1.54a22.87,22.87,0,0,0,0,11.09l-3.84,1.53A2.3,2.3,0,1,0,33.13,39h0l3.71-1.48a22.83,22.83,0,0,0,5.79,7.61,22.93,22.93,0,0,1-29.93,0Z"/></g></g></svg>