<svg xmlns="http://www.w3.org/2000/svg" viewBox="0 0 66.57 70.75"><defs><style>.cls-1{fill:#fff;}</style></defs><g id="Layer_2" data-name="Layer 2"><g id="Boards_List" data-name="Boards List"><path class="cls-1" d="M33.28,23.58A12.07,12.07,0,0,0,21,35.38,12.07,12.07,0,0,0,33.28,47.17,12.07,12.07,0,0,0,45.61,35.38,12.07,12.07,0,0,0,33.28,23.58Zm0,17.69a5.9,5.9,0,1,1,6.17-5.89A6,6,0,0,1,33.28,41.27Z" transform="translate(0)"/><path class="cls-1" d="M61.93,41l-1.36-.76a25.94,25.94,0,0,0,0-9.7l1.36-.75a8.64,8.64,0,0,0,3.39-12.09,9.48,9.48,0,0,0-12.63-3.24l-1.38.76a27.81,27.81,0,0,0-8.78-4.84V8.84A9.05,9.05,0,0,0,33.28,0,9.05,9.05,0,0,0,24,8.84v1.52a27.83,27.83,0,0,0-8.78,4.85l-1.38-.76A9.48,9.48,0,0,0,1.24,17.69,8.65,8.65,0,0,0,4.63,29.78h0L6,30.53a25.53,25.53,0,0,0,0,9.7L4.63,41A8.65,8.65,0,0,0,1.24,53.07a9.48,9.48,0,0,0,12.64,3.24h0l1.37-.75A28.25,28.25,0,0,0,24,60.4v1.51a9.05,9.05,0,0,0,9.24,8.84,9.05,9.05,0,0,0,9.25-8.84V60.4a28.06,28.06,0,0,0,8.78-4.86l1.38.76a9.47,9.47,0,0,0,12.64-3.24A8.66,8.66,0,0,0,61.94,41h0ZM54.08,29.85a20,20,0,0,1,0,11,2.88,2.88,0,0,0,1.43,3.34l3.34,1.85a2.88,2.88,0,0,1,1.13,4,3.16,3.16,0,0,1-4.21,1.08h0l-3.35-1.86a3.19,3.19,0,0,0-3.74.49,21.86,21.86,0,0,1-10,5.53,3,3,0,0,0-2.32,2.86v3.69a3.08,3.08,0,0,1-6.16,0V58.22a3,3,0,0,0-2.32-2.86,21.8,21.8,0,0,1-10-5.54,3.19,3.19,0,0,0-3.75-.48L10.8,51.18a3.15,3.15,0,0,1-4.22-1,2.88,2.88,0,0,1,1.1-4l0,0,3.34-1.85a2.88,2.88,0,0,0,1.43-3.34,20,20,0,0,1,0-11,2.9,2.9,0,0,0-1.43-3.33L7.72,24.66a2.88,2.88,0,0,1-1.13-4,3.16,3.16,0,0,1,4.21-1.08l3.35,1.86a3.19,3.19,0,0,0,3.74-.48,21.76,21.76,0,0,1,10-5.53,3,3,0,0,0,2.31-2.86V8.84a3.09,3.09,0,0,1,6.17,0v3.7a3,3,0,0,0,2.31,2.85,21.78,21.78,0,0,1,10,5.54,3.19,3.19,0,0,0,3.74.49l3.35-1.85A3.16,3.16,0,0,1,60,20.62a2.88,2.88,0,0,1-1.1,4l0,0-3.34,1.84a2.9,2.9,0,0,0-1.43,3.33Z" transform="translate(0)"/></g></g></svg>