<svg xmlns="http://www.w3.org/2000/svg" viewBox="0 0 99.52 99.41"><defs><style>.cls-1{fill:#fff;}</style></defs><g id="Layer_2" data-name="Layer 2"><g id="Output"><path class="cls-1" d="M80.18,60.75a19.33,19.33,0,0,0-15.9,8.38L37.32,57a18.89,18.89,0,0,0,0-14.45L64.27,30.28a19.29,19.29,0,1,0-3.43-11,19.91,19.91,0,0,0,.33,3.26l-28.62,13a19.33,19.33,0,1,0-.06,28.28L61.18,76.82a20.93,20.93,0,0,0-.32,3.26A19.33,19.33,0,1,0,80.19,60.75Zm0-52.46a11,11,0,1,1-11,11.05h0A11.06,11.06,0,0,1,80.18,8.29ZM19.44,60.75a11,11,0,1,1,11-11h0A11.06,11.06,0,0,1,19.44,60.75ZM80.18,91.12a11,11,0,1,1,11-11h0A11.06,11.06,0,0,1,80.18,91.12Z"/></g></g></svg>