<svg xmlns="http://www.w3.org/2000/svg" viewBox="0 0 54.87 59.86"><defs><style>.cls-1{fill:#fff;}</style></defs><g id="Layer_2" data-name="Layer 2"><g id="Output"><path class="cls-1" d="M47.73,59.85a7,7,0,0,1-5-2.08L27.43,42.52,12.1,57.78A7,7,0,0,1,4.38,59.3,7,7,0,0,1,0,52.76V12.47A12.47,12.47,0,0,1,12.47,0H42.4A12.47,12.47,0,0,1,54.87,12.47V52.76A7,7,0,0,1,50.5,59.3,7.13,7.13,0,0,1,47.73,59.85ZM12.47,5A7.48,7.48,0,0,0,5,12.47V52.76a2.1,2.1,0,0,0,3.58,1.49h0l17.12-17a2.48,2.48,0,0,1,3.51,0l17.1,17a2.1,2.1,0,0,0,3.58-1.5V12.47A7.48,7.48,0,0,0,42.4,5Z"/></g></g></svg>