<svg xmlns="http://www.w3.org/2000/svg" viewBox="0 0 45.17 41.36"><defs><style>.cls-1{fill:#fff;}</style></defs><g id="Layer_2" data-name="Layer 2"><g id="Output"><path class="cls-1" d="M7.53,11.25a5.58,5.58,0,0,1-4-1.66L.63,7A1.88,1.88,0,0,1,3.14,4.2h0l3,2.66A1.89,1.89,0,0,0,8.78,7l.08-.08L15.64.48A1.88,1.88,0,0,1,18.23,3.2L11.48,9.63a5.61,5.61,0,0,1-3.95,1.62ZM45.17,7.48A1.89,1.89,0,0,0,43.28,5.6H24.47a1.89,1.89,0,1,0,0,3.77H43.28A1.89,1.89,0,0,0,45.17,7.48ZM11.48,24.68l6.75-6.42a1.88,1.88,0,0,0-2.5-2.82l-.09.09L8.87,22a1.93,1.93,0,0,1-2.66,0l-3-3A1.88,1.88,0,0,0,.55,21.67l3,3a5.64,5.64,0,0,0,8,0Zm33.69-2.14a1.89,1.89,0,0,0-1.89-1.88H24.47a1.88,1.88,0,1,0,0,3.76H43.28A1.89,1.89,0,0,0,45.17,22.54ZM11.48,39.74l6.75-6.43a1.88,1.88,0,1,0-2.51-2.81l-.09.09L8.86,37a1.88,1.88,0,0,1-2.66,0A.6.6,0,0,1,6.12,37l-3-2.66A1.88,1.88,0,0,0,.63,37.12L3.54,39.7a5.64,5.64,0,0,0,8,0Zm33.69-2.15a1.89,1.89,0,0,0-1.89-1.88H24.47a1.89,1.89,0,1,0,0,3.77H43.28A1.89,1.89,0,0,0,45.17,37.59Z"/></g></g></svg>